<svg fill="none" viewBox="0 0 24 18" xmlns="http://www.w3.org/2000/svg"><path clip-rule="evenodd" d="m.522074 5.12131c.027495-.01498.055772-.02872.084754-.04112l10.565572-4.80253c.5258-.23903 1.1294-.23903 1.6552 0l10.5862 4.8119c.7816.35527.7816 1.46544 0 1.82074l-10.5862 4.8119c-.5258.239-1.1294.239-1.6552 0l-9.1724-4.1693v2.947c0 .5523-.44772 1-1 1-.552285 0-1-.4477-1-1v-4.49997c0-.01556.0003552-.03103.00105792-.04641.01478908-.32982.18846808-.65342.52101608-.83221zm19.477926 5.34069v2.262c0 .3755-.1057.7435-.3051 1.0618-1.5522 2.4775-4.1616 3.7141-7.6949 3.7141-3.53329 0-6.14267-1.2366-7.69482-3.714-.19935-.3182-.30509-.6861-.30518-1.0618v-2.2621l7.1724 3.2602c.5258.239 1.1294.239 1.6552 0z" fill="#758ca3" fill-rule="evenodd"/></svg>